<?xml version="1.0" encoding="UTF-8"?>
<svg width="680.55" height="431.49" fill-rule="evenodd" image-rendering="optimizeQuality" shape-rendering="geometricPrecision" text-rendering="geometricPrecision" viewBox="0 0 18954 12017" xmlns="http://www.w3.org/2000/svg">
 <path d="m8196 8617-1053-1021 95-101 1084 1002 13 25 6 32-12 32-13 25-25 13-32 12-32-6z" fill="#f0f0ff" stroke="#000" stroke-width="6.3355"/>
 <path d="m7720 7190-1015 755-114-152 1008-761z" fill="#dedeff" stroke="#000" stroke-width="6.3355"/>
 <path d="m7117 7621-57-12-44-32-38-51-7-50 13-58 38-44 51-25h57l57 6 51 32 25 44 13 57-19 51-32 44-51 26z" fill="#bfbfff" stroke="#000" stroke-width="6.3355"/>
 <path d="m7910 7158-368 318-44 19-38 6-38-13-26-25-139-152-26-38v-38l13-39 25-25 362-317 32-25 38-7 38 7 38 25 139 171 13 26 6 38-6 31z" stroke="#000" stroke-width="6.3355"/>
 <path d="m7790 7139-229 197-51 13-38-19-88-102-19-25 6-19v-32l25-13 229-196 44-13 44 25 89 96 13 38z" fill="#dedeff" stroke="#000" stroke-width="6.3355"/>
 <path d="m7009 7856-342 311-45 19h-38l-44-19-32-25-114-134-32-44-6-38 13-44 31-32 349-298 32-26 44-6 38 13 39 31 120 140 19 32 6 44-12 38z" stroke="#000" stroke-width="6.3355"/>
 <path d="m6882 7856-222 197-50 19-38-19-89-108-19-38 25-38 229-209 44-13 44 25 89 95 13 45z" fill="#dedeff" stroke="#000" stroke-width="6.3355"/>
 <path d="m11291 2617-120-146-197-197-254-228-285-216-298-197-280-126-247-45-171 83 120-280 38 20 83 19 101 25 127 32 121 19 108 25 88 25 51 26 184 76 171 89 146 89 153 114 133 114 133 139 139 153 153 177 6 38v38l-13 26-12 31-32 20-38 19-51 19z" fill="#f0f0ff" stroke="#000" stroke-width="6.3355"/>
 <path d="m10162 1652 901 413 717 336 558 298 431 343 324 431 253 590 210 799 196 1078" fill="none" stroke="#000" stroke-width="76.104"/>
 <path d="m8735 1082 1230 177 57 13 58 19 50 32 45 44 25 38 19 51 13 51v57l-26 44-31 44-45 38-44 39-57 19-57 19h-127l-1218-172-70-19-57-25-51-32-38-32-38-50-13-45-12-50 12-45 13-57 32-44 32-45 50-25 51-32 64-12 63-7z" fill="#303030" stroke="#000" stroke-width="6.3355"/>
 <path d="m11678 2820-717 723-203 501 197 311 482 196 641 127 691 133 622 178 450 292" fill="none" stroke="#000" stroke-width="76.104"/>
 <path d="m11932 4177 209-120 222-115 216-120 222-114 215-121 222-114 216-114 229-114-83-51-70-51-63-63-51-57-57-70-38-70-32-82-19-77-38 70-19 76-19 64v120l6 64 19 57 32 63-1491 736z" fill="#bfbfff" stroke="#000" stroke-width="6.3355"/>
 <path d="m13454 1830 241-6 222 82 171 152 140 203 76 229 19 241-51 234-120 223-32-64-76-159-108-222-120-247-133-254-108-215-83-146z" fill="#ffff1f"/>
 <path d="m8563 6816-399 1478-298-248 247-1065 13-7 51-12 69-19 89-13 83-32 69-25 51-32z" fill="#ff0f0f" stroke="#000" stroke-width="6.3355"/>
 <path d="m7523 7406 5107-2753-102-343-5170 2671z" fill="#ff0f0f" stroke="#000" stroke-width="6.3355"/>
 <path d="m2848 4279 51-19 57-7 51-6 50 6h45l51 19 50 13 51 32 38 82 32 83 25 82 26 89 12 82 13 83 13 82 19 89 50 101 70 121 83 127 95 139 101 127 115 127 114 108 127 89h-51l-64-13-76-25-76-19-82-26-76-19-64-12-38 6-70-89-69-82-70-89-64-89-69-89-51-89-45-88-25-83-19-76-6-76-19-70-7-63-12-70-13-63-13-70-12-64-45-25-57-6-57-7-38 19-13-38-6-38-6-32v-31l-13-70z" fill="#ff0f0f" stroke="#000" stroke-width="6.3355"/>
 <path d="m3502 4355h25l32 25 25 32 25 51 13 50 19 70 13 70 6 76-6 70-13 69-19 64-13 63-25 45-25 44-32 19-25 13-39-13-31-19-32-44-19-45-25-63-13-64-13-69v-146l13-70 13-70 25-50 19-51 32-32 31-25z" stroke="#000" stroke-width="6.3355"/>
 <path d="m1091 6150-70 25-63 26-70 25-63 32-70 25-64 32-63 25-57 32h-76l-70 13h-76l-70 12-76 7-70 12-70 7-63 12 38 127 76 114 95 76 127 51 146 7 171-32 203-83 235-114 89-70 57-50 25-51 7-38v-45l6-44 19-51 51-57-38-6-32-6h-63l-70-13z"/>
 <path d="m12185 8548-19 63-19 70-19 63-12 70-19 70-19 70-19 69-13 76-38 58-38 57-38 63-38 64-38 57-38 57-38 63-39 64 134 44 133 13 120-32 115-64 95-120 82-152 64-210 44-247 6-121-6-76-25-50-19-32-38-32-32-25-32-51-19-63-44 31-45 51-50 51z"/>
 <path d="m6185 5205-1104-1891h400l1040 1897z" fill="#dedeff" stroke="#000" stroke-width="6.3355"/>
 <path d="m3413 11535 514-57 488-152 438-241 387-311 310-387 241-438 153-482 57-513-57-527-153-488-241-444-310-387-387-330-438-241-488-159-514-51v-551l621 57 584 184 533 285 469 387 374 457 292 533 184 589 70 635-70 621-184 584-292 527-374 469-469 374-533 292-584 178-621 69z"/>
 <path d="m3413 6327-520 51-483 159-437 241-381 330-317 387-241 444-146 488-51 527 51 513 146 482 241 438 317 387 381 311 437 241 483 152 520 57v482l-635-69-583-178-533-292-457-374-387-469-285-527-184-584-57-621 57-635 184-589 285-533 387-457 457-387 533-285 583-184 635-57z"/>
 <path d="m3413 11643h6l546-70 507-158 450-248 394-323 317-400 247-450 152-501 58-539-58-546-158-495-247-450-324-393-400-324-456-247-501-153-533-50v393l463 44 431 134 393 215 349 286 279 336 216 400 140 431 50 476-50 456-140 438-216 387-279 349-349 279-393 216-431 133-463 51z" fill="#cfcfff"/>
 <path d="m3400 6296-539 44-495 146-450 235-394 317-329 380-242 451-164 507-64 552v114l57 527 165 495 248 444 329 393 394 311 456 241 502 139 539 51v-323l-470-51-431-133-400-216-336-279-285-349-216-387-133-438-45-456 45-476 133-431 216-400 285-336 336-286 400-215 431-134 470-44v-393h-7z" fill="#cfcfff"/>
 <path d="m3330 8579h-76l-57 26-63 25-45 44-44 51-32 57-25 70v140l25 63 32 57 44 57 45 38 63 38 57 19 76 13 64-13 69-19 58-38 57-38 38-57 38-57 19-63 12-64-12-76-19-70-38-57-38-51-57-44-58-25-69-26z"/>
 <path d="m3115 8725 2264-1129" fill="none" stroke="#000" stroke-width="6.3355"/>
 <path d="m3660 8928 1396-1700" fill="none" stroke="#000" stroke-width="6.3355"/>
 <path d="m3660 8903-679-2195" fill="none" stroke="#000" stroke-width="6.3355"/>
 <path d="m3007 8928 717-2309" fill="none" stroke="#000" stroke-width="6.3355"/>
 <path d="m3419 8579-2410 698" fill="none" stroke="#000" stroke-width="6.3355"/>
 <path d="m3463 9239-2423-679" fill="none" stroke="#000" stroke-width="6.3355"/>
 <path d="m3590 8763-2207-1091" fill="none" stroke="#000" stroke-width="6.3355"/>
 <path d="m3038 9099-1249-1896" fill="none" stroke="#000" stroke-width="6.3355"/>
 <path d="m3616 9125-2214 1205" fill="none" stroke="#000" stroke-width="6.3355"/>
 <path d="m3070 8833-1243 2036" fill="none" stroke="#000" stroke-width="6.3355"/>
 <path d="m3647 8903-488 2480" fill="none" stroke="#000" stroke-width="6.3355"/>
 <path d="m3045 9042 723 2347" fill="none" stroke="#000" stroke-width="6.3355"/>
 <path d="m3197 9157 2556-552" fill="none" stroke="#000" stroke-width="6.3355"/>
 <path d="m3419 8674 2366 521" fill="none" stroke="#000" stroke-width="6.3355"/>
 <path d="m3463 8624 1662 2106" fill="none" stroke="#000" stroke-width="6.3355"/>
 <path d="m3324 9239 2182 901" fill="none" stroke="#000" stroke-width="6.3355"/>
 <path d="m3070 8763 1738-1738" fill="none" stroke="#000" stroke-width="6.3355"/>
 <path d="m3679 8903 558-2157" fill="none" stroke="#000" stroke-width="6.3355"/>
 <path d="m3362 8598 2334-260" fill="none" stroke="#000" stroke-width="6.3355"/>
 <path d="m3590 9118 1986-1192" fill="none" stroke="#000" stroke-width="6.3355"/>
 <path d="m3616 8744 590 2506" fill="none" stroke="#000" stroke-width="6.3355"/>
 <path d="m3089 9125 1757 1820" fill="none" stroke="#000" stroke-width="6.3355"/>
 <path d="m3571 9099-1268 1986" fill="none" stroke="#000" stroke-width="6.3355"/>
 <path d="m3007 8928-311 2354" fill="none" stroke="#000" stroke-width="6.3355"/>
 <path d="m3482 9207-2391 317" fill="none" stroke="#000" stroke-width="6.3355"/>
 <path d="m3127 8655-1833 1409" fill="none" stroke="#000" stroke-width="6.3355"/>
 <path d="m3590 8763-1509-1750" fill="none" stroke="#000" stroke-width="6.3355"/>
 <path d="m2981 8852-425-2131" fill="none" stroke="#000" stroke-width="6.3355"/>
 <path d="m3400 8598-2271-336" fill="none" stroke="#000" stroke-width="6.3355"/>
 <path d="m3178 9207-1960-1281" fill="none" stroke="#000" stroke-width="6.3355"/>
 <path d="m3222 9099 2493 483" fill="none" stroke="#000" stroke-width="6.3355"/>
 <path d="m3482 8706 2145 1199" fill="none" stroke="#000" stroke-width="6.3355"/>
 <path d="m3394 6619-489 45-444 139-406 216-349 292-298 349-215 406-140 444-44 488 44 469 140 451 215 399 298 356 349 285 406 222 444 140 489 50 469-50 450-140 400-222 355-285 286-356 228-399 140-451 50-469-50-488-140-444-228-406-286-349-355-292-400-216-450-139-469-45" fill="none" stroke="#000" stroke-width="76.104"/>
 <path d="m15833 6207v-539l622 57 589 184 527 285 469 381 375 457 291 532 178 584 70 634-70 622-178 590-291 526-375 470-469 374-527 292-589 177-622 70v-482l514-57 488-152 438-241 387-311 311-387 241-431 152-489 57-507-57-533-152-489-241-450-311-387-387-330-438-241-488-158z"/>
 <path d="m15833 6207-527 51-482 158-437 241-381 330-317 387-241 450-146 489-51 533 51 507 146 489 241 431 317 387 381 311 437 241 482 152 527 57v482l-634-70-584-177-533-292-457-374-380-470-286-526-184-590-57-622 57-634 184-584 286-532 380-457 457-381 533-285 584-184 634-57z"/>
 <path d="m15833 11529 545-70 508-165 450-247 400-324 317-393 247-450 153-501 57-533-57-546-159-507-247-451-324-387-399-323-451-241-507-152-533-51v393l457 45 437 133 387 215 349 286 279 336 222 393 133 432 51 469-51 463-133 438-222 387-279 349-349 279-387 215-437 134-457 50z" fill="#cfcfff"/>
 <path d="m15827 6188-546 44-495 146-450 235-393 317-324 381-247 450-159 501-63 552v108l50 526 165 495 248 444 330 393 393 311 457 241 501 146 539 51v-324l-476-50-431-134-393-215-337-279-285-349-209-387-134-438-44-463 44-469 134-432 209-393 285-336 337-286 393-215 431-133 476-45v-393z" fill="#cfcfff"/>
 <path d="m15757 8459h-76l-70 25-57 32-51 44-44 51-32 57-25 70v139l25 64 32 57 44 57 51 44 57 39 70 19 76 12 63-12 64-19 57-39 57-44 38-57 32-57 19-64 12-63-12-76-19-70-32-57-38-51-57-44-57-32-64-25z"/>
 <path d="m15541 8605 2252-1129" fill="none" stroke="#000" stroke-width="6.3355"/>
 <path d="m16080 8820 1396-1700" fill="none" stroke="#000" stroke-width="6.3355"/>
 <path d="m16080 8782-678-2182" fill="none" stroke="#000" stroke-width="6.3355"/>
 <path d="m15433 8820 717-2309" fill="none" stroke="#000" stroke-width="6.3355"/>
 <path d="m15833 8471-2404 686" fill="none" stroke="#000" stroke-width="6.3355"/>
 <path d="m15877 9125-2410-679" fill="none" stroke="#000" stroke-width="6.3355"/>
 <path d="m16011 8643-2214-1079" fill="none" stroke="#000" stroke-width="6.3355"/>
 <path d="m15465 8992-1250-1910" fill="none" stroke="#000" stroke-width="6.3355"/>
 <path d="m16036 9011-2208 1199" fill="none" stroke="#000" stroke-width="6.3355"/>
 <path d="m15490 8725-1249 2036" fill="none" stroke="#000" stroke-width="6.3355"/>
 <path d="m16074 8782-501 2481" fill="none" stroke="#000" stroke-width="6.3355"/>
 <path d="m15465 8922 717 2360" fill="none" stroke="#000" stroke-width="6.3355"/>
 <path d="m15611 9042 2569-545" fill="none" stroke="#000" stroke-width="6.3355"/>
 <path d="m15846 8560 2359 520" fill="none" stroke="#000" stroke-width="6.3355"/>
 <path d="m15884 8510 1662 2112" fill="none" stroke="#000" stroke-width="6.3355"/>
 <path d="m15738 9125 2195 901" fill="none" stroke="#000" stroke-width="6.3355"/>
 <path d="m15484 8643 1738-1738" fill="none" stroke="#000" stroke-width="6.3355"/>
 <path d="m16093 8795 558-2157" fill="none" stroke="#000" stroke-width="6.3355"/>
 <path d="m15788 8478 2322-248" fill="none" stroke="#000" stroke-width="6.3355"/>
 <path d="m16004 8998 1998-1186" fill="none" stroke="#000" stroke-width="6.3355"/>
 <path d="m16036 8624 590 2512" fill="none" stroke="#000" stroke-width="6.3355"/>
 <path d="m15503 9011 1770 1820" fill="none" stroke="#000" stroke-width="6.3355"/>
 <path d="m15985 8992-1269 1972" fill="none" stroke="#000" stroke-width="6.3355"/>
 <path d="m15421 8814-305 2347" fill="none" stroke="#000" stroke-width="6.3355"/>
 <path d="m15903 9099-2385 305" fill="none" stroke="#000" stroke-width="6.3355"/>
 <path d="m15554 8535-1833 1408" fill="none" stroke="#000" stroke-width="6.3355"/>
 <path d="m16011 8643-1510-1751" fill="none" stroke="#000" stroke-width="6.3355"/>
 <path d="m15395 8732-412-2125" fill="none" stroke="#000" stroke-width="6.3355"/>
 <path d="m15827 8491-2284-349" fill="none" stroke="#000" stroke-width="6.3355"/>
 <path d="m15592 9099-1960-1287" fill="none" stroke="#000" stroke-width="6.3355"/>
 <path d="m15649 8992 2480 469" fill="none" stroke="#000" stroke-width="6.3355"/>
 <path d="m15903 8598 2144 1187" fill="none" stroke="#000" stroke-width="6.3355"/>
 <path d="m15808 6499-483 44-444 140-406 215-348 298-299 349-215 406-140 444-44 489 44 469 140 451 215 393 299 355 348 286 406 222 444 139 483 51 475-51 451-139 399-222 355-286 286-355 222-393 140-451 50-469-50-489-140-444-222-406-286-349-355-298-399-215-451-140-475-44" fill="none" stroke="#000" stroke-width="76.104"/>
 <path d="m5899 4868 2163 3800 298-171-2156-3844z" fill="#ff0f0f" stroke="#000" stroke-width="6.3355"/>
 <path d="m10999 2515 2081 3375 279-216-2106-3324z" fill="#dedeff" stroke="#000" stroke-width="6.3355"/>
 <path d="m1072 6524 856-545 895-280 875-38 837 197 736 406 616 622 444 805 241 983 38-19 38-6 44-13 45-6 38-13 38-6 44-6 45-7-273-1027-457-869-634-704-774-489-895-260-970 13-1028 298-1059 628-57 76-32 82-6 64 25 57 38 38 76 25h89z" fill="#de0000" stroke="#000" stroke-width="6.3355"/>
 <path d="m3394 8732 4865-432 82 387-4897 311z" fill="#ff0f0f" stroke="#000" stroke-width="6.3355"/>
 <path d="m3178 8846 3127-3318 184 305-3045 3216z" fill="#ff0f0f" stroke="#000" stroke-width="6.3355"/>
 <path d="m8132 8687h108v431h-108z" fill="#cfffff" stroke="#000" stroke-width="6.3355"/>
 <path d="m8468 8383h451v108h-451z" fill="#cfffff" stroke="#000" stroke-width="6.3355"/>
 <path d="m8151 7748h108v425h-108z" fill="#cfffff" stroke="#000" stroke-width="6.3355"/>
 <path d="m7485 8364h520v114h-520z" fill="#cfffff" stroke="#000" stroke-width="6.3355"/>
 <path d="m8360 8224 362-336 63 101-386 311z" fill="#bfffff" stroke="#0000b3" stroke-width="6.3355"/>
 <path d="m8075 8605-362 323-69-82 380-330z" fill="#cfffff" stroke="#000" stroke-width="6.3355"/>
 <path d="m8107 8243-368-336-57 89 374 323z" fill="#cfffff" stroke="#000" stroke-width="6.3355"/>
 <path d="m8310 8636 368 324 57-89-375-311z" fill="#cfffff" stroke="#000" stroke-width="6.3355"/>
 <path d="m8202 8135h-64l-50 19-51 19-38 38-38 38-26 51-19 51v108l19 57 26 51 38 44 38 32 51 31 50 19 64 13 51-13 57-19 44-31 45-32 31-44 32-51 13-57 12-51-12-57-13-51-32-51-31-38-45-38-44-19-57-19z" fill="#bfffff" stroke="#000" stroke-width="6.3355"/>
 <path d="m8196 9391 184-25 183-51 165-95 146-114 108-146 95-159 57-184 26-190-26-197-57-177-95-165-108-140-146-120-165-83-183-57-184-12v317l126 6 127 38 114 57 108 76 76 83 70 108 38 114 19 133-19 121-38 126-70 115-76 114-108 82-114 70-127 44-126 19z"/>
 <path d="m8196 7476-197 12-184 57-165 83-133 120-121 140-89 165-57 177-12 197 12 190 57 184 89 159 121 146 133 114 165 95 184 51 197 25v-292l-140-19-127-44-120-70-96-82-82-114-63-115-38-126-7-121 7-133 38-114 63-108 82-83 96-76 120-57 127-38 140-6z"/>
 <path d="m8196 7476-197 12-184 57-165 83-133 120-121 140-89 165-57 177-12 197 12 190 57 184 89 159 121 146 133 114 165 95 184 51 197 25 184-25 183-51 165-95 146-114 108-146 95-159 57-184 26-190-26-197-57-177-95-165-108-140-146-120-165-83-183-57-184-12" fill="none" stroke="#000" stroke-width="6.3355"/>
 <path d="m8196 7793-140 6-127 38-120 57-96 76-82 83-63 108-38 114-7 133 7 121 38 126 63 115 82 114 96 82 120 70 127 44 140 19 126-19 127-44 114-70 108-82 76-114 70-115 38-126 19-121-19-133-38-114-70-108-76-83-108-76-114-57-127-38-126-6" fill="none" stroke="#000" stroke-width="6.3355"/>
 <path d="m8132 8941-127 158h394l-140-171z"/>
 <path d="m8151 7907-127-159 394-6-140 178z"/>
 <path d="m7859 8820-38 197-279-285 216-7z"/>
 <path d="m8544 8046 32-196 286 273-229 19z"/>
 <path d="m7885 8008-26-196-285 273 228 19z"/>
 <path d="m8538 8852 25 197 280-273-216-19z"/>
 <path d="m8735 8383 146-140 38 393-184-126z"/>
 <path d="m7682 8351-146-140-51 394 184-127z"/>
 <path d="m8196 8294-58 6-38 26-31 38-7 44 7 51 31 38 38 25 58 13 44-13 38-25 32-38 12-51-12-44-32-38-38-26z"/>
 <path d="m6235 5515 559 51 50 178-425 165z" fill="#bf0000" stroke="#000" stroke-width="6.3355"/>
 <path d="m6438 5649 51 12 19 45-19 44-51 26-57-26-19-44 19-45z" stroke="#000" stroke-width="6.3355"/>
 <path d="m4288 2122-120 108-102 114-82 120-64 127-44 121-19 120 12 114 45 115 108 101 152 83 171 57 203 50 216 32 235 26 241 19 247 25 184-51 222-70 247-82 267-70 253-70 242-31 202 12 172 83 158-89 70-108-19-120-82-108-146-102-178-76-209-51-203-6-470 38-393-13-336-50-279-76-254-102-222-82-216-76z" stroke="#000" stroke-width="6.3355"/>
 <path d="m4180 2579-63 12-38 32-32 32-19 44-19 38-6 57-13 57-6 76 120 115 152 95 172 63 190 51 197 32 209 25 216 6 228 13 197-51 222-57 228-70 247-57 235-50 235-26 222 7 203 57 44-51 26-44-7-39-19-38-57-38-70-38-101-31-121-26-177 38-172 38-177 32-172 38-190 19-184 19-196 6-197 7-184-32-171-32-172-44-164-44-165-58-153-57-152-63z" fill="#0000b3"/>
 <path d="m6737 2953-299 51-266 50-260 38-241 32-247 13-242 6h-247l-254-13 324 51 266 32 229 13 215-7 203-38 229-51 266-82z" fill="#8080ff"/>
 <path d="m6946 2927 32 19 38 19 44 20 57 19 45 12 50 19 51 13 44 13 51-26 38-19 19-31v-32h-50l-58 6h-120l-70-13-63-6-57-6z" fill="#8f8fff"/>
 <path d="m3444 8440-507 501 32 57 38 70 12 31 19 39 19 31 20 38 82-31 95-26 95-25 102-26 95-31 95-19 89-32 95-19z" fill="#bf0000" stroke="#000" stroke-width="6.3355"/>
 <path d="m3413 8674-286 286 89 108 412-108z"/>
 <path d="m4523 7222 70 13 76 25 69 25 70 45 57 44 64 64 51 69 57 95-51 38-45 39-44 38-38 38-44 31-45 38-44 39-38 38-57-45-51-44-51-51-38-44-38-64-38-57-32-63-25-57-6-19 12-32 26-45 38-44 31-51 32-38 19-25z" fill="#dedeff" stroke="#000" stroke-width="6.3355"/>
 <path d="m4358 7457-419-184-342-248-286-317-228-362-184-406-133-431-95-444-58-444v-139l39-108 57-76 76-32h63l57 44 32 89-6 152 12 356 64 399 108 406 164 406 216 368 286 330 348 260 426 184-58 38-50 51-57 50z" fill="#ff0f0f" stroke="#000" stroke-width="6.3355"/>
 <path d="m3324 5382 6-44 32-38 25-19 38-19 51-19 76-19h32l38 6h38l38 6h32l38 7h38l38 6-63 6-32 19-25 19-7 26-19 19-19 25-44 26-64 31-31 89-32 64-32 38-25 12-32-25-32-44-31-77z" fill="#f0f0ff" stroke="#000" stroke-width="6.3355"/>
 <path d="m3559 4367h25l32 26 25 31 25 51 13 51 19 70 13 69 6 83-6 70-13 70-19 63-13 57-25 44-25 38-32 20-25 12-38-12-32-20-26-38-19-44-25-57-13-63-6-70v-153l6-69 13-70 25-51 19-51 26-31 32-26z" fill="#f0f0ff" stroke="#000" stroke-width="6.3355"/>
 <path d="m3590 5186-12-64-7-57v-95l-6-51v-51l-6-57v-50l25-45 25-12 26 12 31 45v241l-6 57v120l6 64-19 31-19-6-25-44z" stroke="#000" stroke-width="6.3355"/>
 <path d="m11754 4069 552-304 1231 1922-552 285z" fill="#ff0f0f" stroke="#000" stroke-width="6.3355"/>
 <path d="m16474 5579 285-19 184-38 89-57 12-57-69-70-127-64-178-63-215-44-958-26-806 140-685 279-565 412-469 514-368 609-285 679-210 742 32 82 57 57 57 32 76 13 76-13 77-19 76-38 76-32-19-342 133-489 273-571 418-577 546-526 691-394 825-196z" fill="#de0000" stroke="#000" stroke-width="6.3355"/>
 <path d="m12921 5744 406-267 51-25h51l51 19 44 44 13 51v51l-26 51-38 38-399 266-58 13h-50l-57-19-32-38-19-51v-51l19-50z" stroke="#000" stroke-width="6.3355"/>
 <path d="m12966 4596-57 6-45 32-32 51-6 63 6 51 32 50 45 32 57 19 50-19 51-32 32-50 13-51-13-63-32-51-51-32z" stroke="#000" stroke-width="6.3355"/>
 <path d="m12794 4888 2195 3304 254-114-2100-3387z" fill="#ff0f0f" stroke="#000" stroke-width="6.3355"/>
 <path d="m15199 7989 881 717-412 393-730-957z" fill="#ff0f0f" stroke="#000" stroke-width="6.3355"/>
 <path d="m15719 8636 50 7 51 25 32 38 13 57-13 45-32 44-51 25-50 13-64-13-44-25-32-44-6-45 6-57 32-38 44-25z" stroke="#000" stroke-width="6.3355"/>
 <path d="m11773 3936 482-279 51-25 63 6 51 25 45 57 12 51v57l-31 51-45 44-469 279-70 13h-57l-57-32-32-44-19-63v-58l25-50z" stroke="#000" stroke-width="6.3355"/>
 <path d="m12896 5293 482-367 463 710-463 304z" fill="#bf0000" stroke="#000" stroke-width="6.3355"/>
 <path d="m13733 5224 964 1579 146-38-977-1649z" fill="#8080ff"/>
 <path d="m14526 6632 279-171 57 57 57 70 51 69 51 76 32 70 38 76 25 83 32 82-305 114-44 7-44-45-51-82-51-95-57-114-38-96-25-76z" fill="#8080ff"/>
 <path d="m13150 2014 76 171 82 172 83 164 101 165 95 146 115 140 126 127 146 127h64l63-13 57-32 57-51-44-203-51-190-63-184-76-171-96-171-101-165-127-153-139-145-64-19-63 12-76 26-70 44-70 51-38 57-13 44z" fill="#dedeff" stroke="#000" stroke-width="6.3355"/>
 <path d="m13162 2008 95 146 102 145 95 146 102 153 95 145 101 146 102 146 101 153-63 19-51 25-57 13-51 12h-70l-76 7-95-7h-108l-76-38-57-38-57-57-38-57-44-76-32-70-32-70-13-69-31-121-13-101-6-96 6-88 19-96 38-88 45-96z" stroke="#000" stroke-width="6.3355"/>
 <path d="m6254 4418-754 450 215 324 749-463z" fill="#bf0000" stroke="#000" stroke-width="6.3355"/>
 <path d="m5772 4811h32l38 26 26 31 12 39-12 38-26 31-38 19-32 13-38-13-31-19-26-31v-77l26-31 31-26z" stroke="#000" stroke-width="6.3355"/>
 <path d="m11475 2585-44-76-7-57 13-45 38-25 44-25 58-7 57 7 63 25 44-19 45 6 32 13 31 32 13 31 19 51 6 44 7 58-26 25-25 32-38 19-32 25-51 6-44 7h-89l-19-26-32-50-38-45z" fill="#ff0f0f" stroke="#000" stroke-width="6.3355"/>
 <path d="m11519 2598-76-248-82-209-108-178-108-158-120-153-121-133-120-139-115-140-659-101 387-470 31 32 70 57 83 70 95 82 89 76 82 76 63 58 39 38 145 133 134 146 107 139 102 159 89 158 82 178 83 190 82 210-13 38-12 38-19 19-26 25-38 7-38 6-50-6z" fill="#dedeff" stroke="#000" stroke-width="6.3355"/>
 <path d="m9204 41 1123 527 51 31 44 45 38 51 32 63 13 57v64l-7 63-13 70-44 50-44 45-57 32-51 31-64 13-63 6-63-12-58-19-1122-527-64-44-44-45-38-57-19-50-19-64v-63l12-64 26-57 32-63 38-45 50-38 64-19 57-19h63l57 7z" stroke="#000" stroke-width="6.3355"/>
 <path d="m10999 2731 413-273 241 336-457 216-32-38-19-32-32-38-19-32-25-38-25-31-26-39z" fill="#ff0f0f" stroke="#000" stroke-width="6.3355"/>
 <path d="m9027 1189 209-50 209-32 197-25 196-7 184-6 191 19 190 25 197 45 25-38 57-19 51-32 25-26-177-69-172-64-177-57-172-38-196-19-203 13-235 38-247 89-95 25-77 38-57 38-31 45-13 31 19 32 32 25z" fill="#ffdede" stroke="#000" stroke-width="6.3355"/>
 <path d="m8912 2008 172-76 165-51 158-38 165-26 152-25 165-6h165l178 12 76-6 70-6 50-13 38-6 7-19-13-19-44-26-57-19-165-38-159-32-158-19-159-6-171 6-172 38-190 64-203 114-76 32-57 31-38 32-19 38v19l19 26 38 12z" fill="#ffdede" stroke="#000" stroke-width="6.3355"/>
 <path d="m10118 745 532 368 178-70z" fill="#ff0f0f" stroke="#000" stroke-width="6.3355"/>
 <path d="m10688 1043 457 7 343 44 234 83 140 139 51 197-13 279-70 362-108 463" fill="none" stroke="#000" stroke-width="76.104"/>
 <path d="m13562 5668-1047 736-977 456-945 197-926-19-939-216-970-361-1028-489-1097-571-895-444-450-139-108 82 140 235 273 311 329 311 267 241 114 101" fill="none" stroke="#000" stroke-width="76.104"/>
 <path d="m5684 5940-1199 1073-102-77 1174-1116z" fill="#dedeff" stroke="#000" stroke-width="6.3355"/>
 <path d="m8240 8338 1085 996-89 102-1123-965-32-69 32-51 19-25 32-7h38z" fill="#f0f0ff" stroke="#000" stroke-width="6.3355"/>
 <path d="m8760 9746 990-786 114 158-983 787z" fill="#dedeff" stroke="#000" stroke-width="6.3355"/>
 <path d="m9344 9302 50 7 51 32 32 44 13 57-13 51-32 44-51 32-50 13-64-13-44-32-32-44-6-51 6-57 32-44 44-32z" fill="#bfbfff" stroke="#000" stroke-width="6.3355"/>
 <path d="m8576 9785 355-330 32-26h38l38 7 38 25 140 159 19 31 6 38-6 32-19 38-355 330-38 13-39 6-38-6-31-19-140-146-25-38-7-38 7-45z" stroke="#000" stroke-width="6.3355"/>
 <path d="m8697 9804 222-203 38-19 50 19 89 95 13 44-19 45-216 209-50 19-39-19-88-102-19-44z" fill="#dedeff" stroke="#000" stroke-width="6.3355"/>
 <path d="m9439 9061 336-317 38-25 44-6 39 12 38 32 126 127 26 31 6 45-12 44-20 45-336 304-44 26-38 12-45-12-38-26-120-139-26-38-6-38 6-45z" stroke="#000" stroke-width="6.3355"/>
 <path d="m9572 9061 222-209 38-19 45 19 88 102 19 38-19 50-215 203-51 13-38-19-89-89-19-51z" fill="#dedeff" stroke="#000" stroke-width="6.3355"/>
 <path d="m8697 1158 82 19 171 50 216 51 247 64 242 38 215 25 159-6 89-45-178-25-178-25-177-26-178-25-177-26-178-25-178-25z" fill="#cfcfcf"/>
 <path d="m9179 149-70 6 89 70 190 108 254 127 266 114 241 95 172 38 57-12-165-77-153-63-145-70-140-63-146-70-146-70-152-69z" fill="#fff"/>
</svg>
